/* XPM */
static char * lhalfufcs_xpm[] = {
"19 19 77 1",
" 	c #AAAAAA",
".	c #ABABAB",
"+	c #9F9F9F",
"@	c #777777",
"#	c #ACACAC",
"$	c #A1A1A1",
"%	c #787878",
"&	c #AEAEAE",
"*	c #A3A3A3",
"=	c #8DFFC5",
"-	c #7A7A7A",
";	c #AFAFAF",
">	c #A4A4A4",
",	c #8DFFC9",
"'	c #8CFFC0",
")	c #87EA9D",
"!	c #7B7B7B",
"~	c #B1B1B1",
"{	c #A6A6A6",
"]	c #8DFFCA",
"^	c #8CFFC1",
"/	c #87EA9E",
"(	c #7C7C7C",
"_	c #B2B2B2",
":	c #A8A8A8",
"<	c #8EFFCB",
"[	c #8DFFC3",
"}	c #88EBA0",
"|	c #7E7E7E",
"1	c #B3B3B3",
"2	c #A9A9A9",
"3	c #8EFFCC",
"4	c #8DFFC4",
"5	c #B5B5B5",
"6	c #8EFFCD",
"7	c #88ECA1",
"8	c #808080",
"9	c #B7B7B7",
"0	c #ADADAD",
"a	c #8EFFCF",
"b	c #8DFFC7",
"c	c #88EEA2",
"d	c #818181",
"e	c #B8B8B8",
"f	c #8EFFD0",
"g	c #8DFFC8",
"h	c #88EEA3",
"i	c #828282",
"j	c #B9B9B9",
"k	c #B0B0B0",
"l	c #8EFFD1",
"m	c #8DFFC9",
"n	c #89EFA5",
"o	c #848484",
"p	c #BBBBBB",
"q	c #8EFFD2",
"r	c #858585",
"s	c #BCBCBC",
"t	c #8EFFD3",
"u	c #89F0A6",
"v	c #868686",
"w	c #BEBEBE",
"x	c #8FFFD6",
"y	c #89F0A8",
"z	c #878787",
"A	c #C0C0C0",
"B	c #8AF7B1",
"C	c #8AF4AD",
"D	c #86E08E",
"E	c #898989",
"F	c #8A8A8A",
"G	c #C2C2C2",
"H	c #BABABA",
"I	c #8B8B8B",
"J	c #939393",
"K	c #8D8D8D",
"L	c #696969",
"                   ",
".+++++++++++++++++@",
"#$$$$$$$$$$$$$$$$$%",
"&**======*********-",
";>>,'''')>>>>>>>>>!",
"~{{]^^^^/{{{{{{{{{(",
"_::<[[[[}:::::::::|",
"12234444}222222222|",
"5..6====7.........8",
"900abbbbc000000000d",
"e&&fggggh&&&&&&&&&i",
"jkklmmmmnkkkkkkkkko",
"p__q<<<<n_________r",
"s11t3333u111111111v",
"w55x6666y555555555z",
"A99BCCCCD999999999E",
"AeeeeeeeeeeeeeeeeeF",
"GHHHHHHHHHHHHHHHHHI",
"JKKKKKKKKKKKKKKKKKL"};
