/* XPM */
static char * pmaxpr_xpm[] = {
"19 19 82 1",
" 	c #3F3F3F",
".	c #545454",
"+	c #616161",
"@	c #565656",
"#	c #717171",
"$	c #848484",
"%	c #575757",
"&	c #737373",
"*	c #868686",
"=	c #585858",
"-	c #757575",
";	c #58864D",
">	c #659959",
",	c #68A467",
"'	c #878787",
")	c #5A5A5A",
"!	c #767676",
"~	c #669E5F",
"{	c #6EB77D",
"]	c #73C68E",
"^	c #888888",
"/	c #5B5B5B",
"(	c #787878",
"_	c #669F60",
":	c #6FB87F",
"<	c #74C990",
"[	c #8A8A8A",
"}	c #5C5C5C",
"|	c #7A7A7A",
"1	c #66A061",
"2	c #6FBA81",
"3	c #75CA92",
"4	c #8B8B8B",
"5	c #5D5D5D",
"6	c #7B7B7B",
"7	c #67A062",
"8	c #70BB82",
"9	c #75CB94",
"0	c #8D8D8D",
"a	c #5F5F5F",
"b	c #7D7D7D",
"c	c #68A265",
"d	c #70BD84",
"e	c #76CD96",
"f	c #8F8F8F",
"g	c #606060",
"h	c #7F7F7F",
"i	c #68A466",
"j	c #71BF86",
"k	c #808080",
"l	c #76CF98",
"m	c #919191",
"n	c #636363",
"o	c #828282",
"p	c #69A669",
"q	c #72C188",
"r	c #77D19A",
"s	c #939393",
"t	c #72C38A",
"u	c #77D19B",
"v	c #949494",
"w	c #656565",
"x	c #858585",
"y	c #69A76B",
"z	c #73C48B",
"A	c #77D39D",
"B	c #969696",
"C	c #666666",
"D	c #69A86C",
"E	c #73C68D",
"F	c #78D49E",
"G	c #979797",
"H	c #676767",
"I	c #898989",
"J	c #7AD9A4",
"K	c #989898",
"L	c #696969",
"M	c #9A9A9A",
"N	c #6A6A6A",
"O	c #8C8C8C",
"P	c #9C9C9C",
"Q	c #9D9D9D",
" .................+",
"@#################$",
"%&&&&&&&&&&&&&&&&&*",
"=--;>>>>>>>>>>>,--'",
")!!~{{{{{{{{{{{]!!^",
"/((_:::::::::::<(([",
"}||1222222222223||4",
"5667888888888889660",
"abbcdddddddddddebbf",
"ghhijjjjjjjjjjjehhf",
"+kk,jjjjjjjjjjjlkkm",
"noopqqqqqqqqqqqroos",
"n$$ptttttttttttu$$v",
"wxxyzzzzzzzzzzzAxxB",
"C''DEEEEEEEEEEEF''G",
"HIIJJJJJJJJJJJJJIIK",
"L[[[[[[[[[[[[[[[[[M",
"NOOOOOOOOOOOOOOOOOP",
"QQQQQQQQQQQQQQQQQQQ"};
