/* XPM */
static char * pmenufcs_xpm[] = {
"19 19 55 1",
" 	c #818181",
".	c #828282",
"+	c #717171",
"@	c #545454",
"#	c #848484",
"$	c #737373",
"%	c #565656",
"&	c #868686",
"*	c #757575",
"=	c #575757",
"-	c #878787",
";	c #767676",
">	c #585858",
",	c #888888",
"'	c #787878",
")	c #5A5A5A",
"!	c #8A8A8A",
"~	c #7A7A7A",
"{	c #5B5B5B",
"]	c #8B8B8B",
"^	c #7B7B7B",
"/	c #5C5C5C",
"(	c #8D8D8D",
"_	c #7D7D7D",
":	c #72C087",
"<	c #5D5D5D",
"[	c #8F8F8F",
"}	c #7F7F7F",
"|	c #76CD96",
"1	c #71BF86",
"2	c #68A265",
"3	c #5F5F5F",
"4	c #808080",
"5	c #6EB57C",
"6	c #6BAC70",
"7	c #629456",
"8	c #606060",
"9	c #919191",
"0	c #616161",
"a	c #939393",
"b	c #636363",
"c	c #949494",
"d	c #858585",
"e	c #969696",
"f	c #656565",
"g	c #979797",
"h	c #898989",
"i	c #666666",
"j	c #989898",
"k	c #676767",
"l	c #9A9A9A",
"m	c #8C8C8C",
"n	c #696969",
"o	c #6A6A6A",
"p	c #4F4F4F",
"                   ",
".+++++++++++++++++@",
"#$$$$$$$$$$$$$$$$$%",
"&*****************=",
"-;;;;;;;;;;;;;;;;;>",
",''''''''''''''''')",
"!~~~~~~~~~~~~~~~~~{",
"]^^^^^^^^^^^^^^^^^/",
"(_:::::::::::::::_<",
"[}|11111111111112}3",
"[456666666666666748",
"9.................0",
"a#################b",
"cdddddddddddddddddb",
"e-----------------f",
"ghhhhhhhhhhhhhhhhhi",
"j!!!!!!!!!!!!!!!!!k",
"lmmmmmmmmmmmmmmmmmn",
"*ooooooooooooooooop"};
