/* XPM */
static char * pmenupr_xpm[] = {
"19 19 56 1",
" 	c #3F3F3F",
".	c #545454",
"+	c #616161",
"@	c #565656",
"#	c #717171",
"$	c #848484",
"%	c #575757",
"&	c #737373",
"*	c #868686",
"=	c #585858",
"-	c #757575",
";	c #878787",
">	c #5A5A5A",
",	c #767676",
"'	c #888888",
")	c #5B5B5B",
"!	c #787878",
"~	c #8A8A8A",
"{	c #5C5C5C",
"]	c #7A7A7A",
"^	c #8B8B8B",
"/	c #5D5D5D",
"(	c #7B7B7B",
"_	c #8D8D8D",
":	c #5F5F5F",
"<	c #7D7D7D",
"[	c #58864D",
"}	c #659959",
"|	c #68A467",
"1	c #8F8F8F",
"2	c #606060",
"3	c #7F7F7F",
"4	c #68A466",
"5	c #71BF86",
"6	c #76CD96",
"7	c #808080",
"8	c #7AD9A4",
"9	c #919191",
"0	c #636363",
"a	c #828282",
"b	c #939393",
"c	c #949494",
"d	c #656565",
"e	c #858585",
"f	c #969696",
"g	c #666666",
"h	c #979797",
"i	c #676767",
"j	c #898989",
"k	c #989898",
"l	c #696969",
"m	c #9A9A9A",
"n	c #6A6A6A",
"o	c #8C8C8C",
"p	c #9C9C9C",
"q	c #9D9D9D",
" .................+",
"@#################$",
"%&&&&&&&&&&&&&&&&&*",
"=-----------------;",
">,,,,,,,,,,,,,,,,,'",
")!!!!!!!!!!!!!!!!!~",
"{]]]]]]]]]]]]]]]]]^",
"/(((((((((((((((((_",
":<[}}}}}}}}}}}}}|<1",
"2345555555555555631",
"+788888888888888879",
"0aaaaaaaaaaaaaaaaab",
"0$$$$$$$$$$$$$$$$$c",
"deeeeeeeeeeeeeeeeef",
"g;;;;;;;;;;;;;;;;;h",
"ijjjjjjjjjjjjjjjjjk",
"l~~~~~~~~~~~~~~~~~m",
"nooooooooooooooooop",
"qqqqqqqqqqqqqqqqqqq"};
