/* XPM */
static char * pminufcs_xpm[] = {
"19 19 53 1",
" 	c #AAAAAA",
".	c #ABABAB",
"+	c #9F9F9F",
"@	c #777777",
"#	c #ACACAC",
"$	c #A1A1A1",
"%	c #787878",
"&	c #AEAEAE",
"*	c #A3A3A3",
"=	c #7A7A7A",
"-	c #AFAFAF",
";	c #A4A4A4",
">	c #7B7B7B",
",	c #B1B1B1",
"'	c #A6A6A6",
")	c #7C7C7C",
"!	c #B2B2B2",
"~	c #A8A8A8",
"{	c #7E7E7E",
"]	c #B3B3B3",
"^	c #A9A9A9",
"/	c #B5B5B5",
"(	c #808080",
"_	c #B7B7B7",
":	c #ADADAD",
"<	c #818181",
"[	c #B8B8B8",
"}	c #828282",
"|	c #B9B9B9",
"1	c #B0B0B0",
"2	c #848484",
"3	c #BBBBBB",
"4	c #858585",
"5	c #BCBCBC",
"6	c #8DFFC5",
"7	c #868686",
"8	c #BEBEBE",
"9	c #8EFFCF",
"0	c #8EFFCD",
"a	c #88EEA2",
"b	c #878787",
"c	c #C0C0C0",
"d	c #8AF7B1",
"e	c #8AF4AD",
"f	c #86E08E",
"g	c #898989",
"h	c #8A8A8A",
"i	c #C2C2C2",
"j	c #BABABA",
"k	c #8B8B8B",
"l	c #939393",
"m	c #8D8D8D",
"n	c #696969",
"                   ",
".+++++++++++++++++@",
"#$$$$$$$$$$$$$$$$$%",
"&*****************=",
"-;;;;;;;;;;;;;;;;;>",
",''''''''''''''''')",
"!~~~~~~~~~~~~~~~~~{",
"]^^^^^^^^^^^^^^^^^{",
"/.................(",
"_:::::::::::::::::<",
"[&&&&&&&&&&&&&&&&&}",
"|111111111111111112",
"3!!!!!!!!!!!!!!!!!4",
"5]666666666666666]7",
"8/90000000000000a/b",
"c_deeeeeeeeeeeeef_g",
"c[[[[[[[[[[[[[[[[[h",
"ijjjjjjjjjjjjjjjjjk",
"lmmmmmmmmmmmmmmmmmn"};
