/* XPM */
static char * pshadeufcs_xpm[] = {
"19 19 61 1",
" 	c #AAAAAA",
".	c #ABABAB",
"+	c #9F9F9F",
"@	c #777777",
"#	c #ACACAC",
"$	c #A1A1A1",
"%	c #8DFFC5",
"&	c #787878",
"*	c #AEAEAE",
"=	c #A3A3A3",
"-	c #8DFFC8",
";	c #8CFFC0",
">	c #87EA9D",
",	c #7A7A7A",
"'	c #AFAFAF",
")	c #A4A4A4",
"!	c #8AF7B1",
"~	c #8AF4AD",
"{	c #86E08E",
"]	c #7B7B7B",
"^	c #B1B1B1",
"/	c #A6A6A6",
"(	c #8DFFCA",
"_	c #7C7C7C",
":	c #B2B2B2",
"<	c #A8A8A8",
"[	c #8EFFCB",
"}	c #8DFFC3",
"|	c #88EBA0",
"1	c #7E7E7E",
"2	c #B3B3B3",
"3	c #A9A9A9",
"4	c #8EFFCC",
"5	c #8DFFC4",
"6	c #B5B5B5",
"7	c #8EFFCD",
"8	c #88ECA1",
"9	c #808080",
"0	c #B7B7B7",
"a	c #ADADAD",
"b	c #818181",
"c	c #B8B8B8",
"d	c #828282",
"e	c #B9B9B9",
"f	c #B0B0B0",
"g	c #848484",
"h	c #BBBBBB",
"i	c #858585",
"j	c #BCBCBC",
"k	c #868686",
"l	c #BEBEBE",
"m	c #878787",
"n	c #C0C0C0",
"o	c #898989",
"p	c #8A8A8A",
"q	c #C2C2C2",
"r	c #BABABA",
"s	c #8B8B8B",
"t	c #939393",
"u	c #8D8D8D",
"v	c #696969",
"                   ",
".+++++++++++++++++@",
"#$%%%%%%%%%%%%%%%$&",
"*=-;;;;;;;;;;;;;>=,",
"')!~~~~~~~~~~~~~{)]",
"^////////(////////_",
":<<<<<<<[}|<<<<<<<1",
"23333334555|3333331",
"6.....7%%%%%8.....9",
"0aaaa!~~~~~~~{aaaab",
"c*****************d",
"efffffffffffffffffg",
"h:::::::::::::::::i",
"j22222222222222222k",
"l66666666666666666m",
"n00000000000000000o",
"ncccccccccccccccccp",
"qrrrrrrrrrrrrrrrrrs",
"tuuuuuuuuuuuuuuuuuv"};
