/* XPM */
static char * pstickpr_xpm[] = {
"19 19 49 1",
" 	c #3F3F3F",
".	c #545454",
"+	c #616161",
"@	c #565656",
"#	c #717171",
"$	c #848484",
"%	c #575757",
"&	c #737373",
"*	c #868686",
"=	c #585858",
"-	c #757575",
";	c #878787",
">	c #5A5A5A",
",	c #767676",
"'	c #888888",
")	c #5B5B5B",
"!	c #787878",
"~	c #8A8A8A",
"{	c #5C5C5C",
"]	c #7A7A7A",
"^	c #8B8B8B",
"/	c #5D5D5D",
"(	c #7B7B7B",
"_	c #8D8D8D",
":	c #5F5F5F",
"<	c #7D7D7D",
"[	c #8F8F8F",
"}	c #606060",
"|	c #7F7F7F",
"1	c #808080",
"2	c #919191",
"3	c #636363",
"4	c #828282",
"5	c #9D9D9D",
"6	c #939393",
"7	c #949494",
"8	c #656565",
"9	c #858585",
"0	c #969696",
"a	c #666666",
"b	c #979797",
"c	c #676767",
"d	c #898989",
"e	c #989898",
"f	c #696969",
"g	c #9A9A9A",
"h	c #6A6A6A",
"i	c #8C8C8C",
"j	c #9C9C9C",
" .................+",
"@#################$",
"%&&&&&&&&&&&&&&&&&*",
"=-----------------;",
">,,,,,,,,,,,,,,,,,'",
")!!!!!!!!!!!!!!!!!~",
"{]]]]]]]]]]]]]]]]]^",
"/(((((( ...+((((((_",
":<<<<<<:<<<[<<<<<<[",
"}||||||}|||[||||||[",
"+111111+11121111112",
"3444444555554444446",
"3$$$$$$$$$$$$$$$$$7",
"8999999999999999990",
"a;;;;;;;;;;;;;;;;;b",
"cddddddddddddddddde",
"f~~~~~~~~~~~~~~~~~g",
"hiiiiiiiiiiiiiiiiij",
"5555555555555555555"};
