/* XPM */
static char * punshadepr_xpm[] = {
"19 19 66 1",
" 	c #3F3F3F",
".	c #545454",
"+	c #616161",
"@	c #565656",
"#	c #717171",
"$	c #848484",
"%	c #575757",
"&	c #737373",
"*	c #58864D",
"=	c #659959",
"-	c #68A467",
";	c #868686",
">	c #585858",
",	c #757575",
"'	c #659C5D",
")	c #6EB57C",
"!	c #73C68D",
"~	c #878787",
"{	c #5A5A5A",
"]	c #767676",
"^	c #7AD9A4",
"/	c #888888",
"(	c #5B5B5B",
"_	c #787878",
":	c #8A8A8A",
"<	c #5C5C5C",
"[	c #7A7A7A",
"}	c #66A061",
"|	c #8B8B8B",
"1	c #5D5D5D",
"2	c #7B7B7B",
"3	c #67A062",
"4	c #70BB82",
"5	c #75CB94",
"6	c #8D8D8D",
"7	c #5F5F5F",
"8	c #7D7D7D",
"9	c #68A265",
"0	c #70BD84",
"a	c #76CD96",
"b	c #8F8F8F",
"c	c #606060",
"d	c #7F7F7F",
"e	c #68A466",
"f	c #71BF86",
"g	c #808080",
"h	c #76CF98",
"i	c #919191",
"j	c #636363",
"k	c #828282",
"l	c #939393",
"m	c #949494",
"n	c #656565",
"o	c #858585",
"p	c #969696",
"q	c #666666",
"r	c #979797",
"s	c #676767",
"t	c #898989",
"u	c #989898",
"v	c #696969",
"w	c #9A9A9A",
"x	c #6A6A6A",
"y	c #8C8C8C",
"z	c #9C9C9C",
"A	c #9D9D9D",
" .................+",
"@#################$",
"%&*=============-&;",
">,')))))))))))))!,~",
"{]^^^^^^^^^^^^^^^]/",
"(_________________:",
"<[[[[}=======-[[[[|",
"1222223444445222226",
"78888889000a888888b",
"cdddddddefadddddddb",
"+gggggggghggggggggi",
"jkkkkkkkkkkkkkkkkkl",
"j$$$$$$$$$$$$$$$$$m",
"nooooooooooooooooop",
"q~~~~~~~~~~~~~~~~~r",
"stttttttttttttttttu",
"v:::::::::::::::::w",
"xyyyyyyyyyyyyyyyyyz",
"AAAAAAAAAAAAAAAAAAA"};
