/* XPM */
static char * pmaxfcs_xpm[] = {
"19 19 81 1",
" 	c #818181",
".	c #828282",
"+	c #717171",
"@	c #545454",
"#	c #848484",
"$	c #737373",
"%	c #565656",
"&	c #868686",
"*	c #757575",
"=	c #C1A181",
"-	c #575757",
";	c #878787",
">	c #767676",
",	c #C4A687",
"'	c #BB9977",
")	c #AC8359",
"!	c #585858",
"~	c #888888",
"{	c #787878",
"]	c #C4A688",
"^	c #BC9A79",
"/	c #AD845B",
"(	c #5A5A5A",
"_	c #8A8A8A",
":	c #7A7A7A",
"<	c #C5A88A",
"[	c #BD9C7B",
"}	c #AE855C",
"|	c #5B5B5B",
"1	c #8B8B8B",
"2	c #7B7B7B",
"3	c #C6A98B",
"4	c #BE9D7C",
"5	c #AE865D",
"6	c #5C5C5C",
"7	c #8D8D8D",
"8	c #7D7D7D",
"9	c #C7AA8D",
"0	c #BF9E7E",
"a	c #AF865E",
"b	c #5D5D5D",
"c	c #8F8F8F",
"d	c #7F7F7F",
"e	c #C8AC8F",
"f	c #C0A080",
"g	c #B08860",
"h	c #5F5F5F",
"i	c #808080",
"j	c #B08961",
"k	c #606060",
"l	c #919191",
"m	c #C9AD91",
"n	c #C1A282",
"o	c #B18962",
"p	c #616161",
"q	c #939393",
"r	c #CAAF93",
"s	c #C2A384",
"t	c #B28B64",
"u	c #636363",
"v	c #949494",
"w	c #858585",
"x	c #CAAF94",
"y	c #C3A485",
"z	c #969696",
"A	c #CBB196",
"B	c #B38C66",
"C	c #656565",
"D	c #979797",
"E	c #898989",
"F	c #BB9876",
"G	c #B5906B",
"H	c #A67C52",
"I	c #666666",
"J	c #989898",
"K	c #676767",
"L	c #9A9A9A",
"M	c #8C8C8C",
"N	c #696969",
"O	c #6A6A6A",
"P	c #4F4F4F",
"                   ",
".+++++++++++++++++@",
"#$$$$$$$$$$$$$$$$$%",
"&**=============**-",
";>>,''''''''''')>>!",
"~{{]^^^^^^^^^^^/{{(",
"_::<[[[[[[[[[[[}::|",
"1223444444444445226",
"788900000000000a88b",
"cddefffffffffffgddh",
"ciiefffffffffffjiik",
"l..mnnnnnnnnnnno..p",
"q##rssssssssssst##u",
"vwwxyyyyyyyyyyytwwu",
"z;;A,,,,,,,,,,,B;;C",
"DEEFGGGGGGGGGGGHEEI",
"J_________________K",
"LMMMMMMMMMMMMMMMMMN",
"*OOOOOOOOOOOOOOOOOP"};
