/* XPM */
static char * pmenuufcs_xpm[] = {
"19 19 53 1",
" 	c #AAAAAA",
".	c #ABABAB",
"+	c #9F9F9F",
"@	c #777777",
"#	c #ACACAC",
"$	c #A1A1A1",
"%	c #787878",
"&	c #AEAEAE",
"*	c #A3A3A3",
"=	c #7A7A7A",
"-	c #AFAFAF",
";	c #A4A4A4",
">	c #7B7B7B",
",	c #B1B1B1",
"'	c #A6A6A6",
")	c #7C7C7C",
"!	c #B2B2B2",
"~	c #A8A8A8",
"{	c #7E7E7E",
"]	c #B3B3B3",
"^	c #A9A9A9",
"/	c #B5B5B5",
"(	c #EFD9BC",
"_	c #808080",
":	c #B7B7B7",
"<	c #ADADAD",
"[	c #F1DFC6",
"}	c #F0DABE",
"|	c #E7C79B",
"1	c #818181",
"2	c #B8B8B8",
"3	c #EBCFA9",
"4	c #EACCA5",
"5	c #E3BC88",
"6	c #828282",
"7	c #B9B9B9",
"8	c #B0B0B0",
"9	c #848484",
"0	c #BBBBBB",
"a	c #858585",
"b	c #BCBCBC",
"c	c #868686",
"d	c #BEBEBE",
"e	c #878787",
"f	c #C0C0C0",
"g	c #898989",
"h	c #8A8A8A",
"i	c #C2C2C2",
"j	c #BABABA",
"k	c #8B8B8B",
"l	c #939393",
"m	c #8D8D8D",
"n	c #696969",
"                   ",
".+++++++++++++++++@",
"#$$$$$$$$$$$$$$$$$%",
"&*****************=",
"-;;;;;;;;;;;;;;;;;>",
",''''''''''''''''')",
"!~~~~~~~~~~~~~~~~~{",
"]^^^^^^^^^^^^^^^^^{",
"/.(((((((((((((((._",
":<[}}}}}}}}}}}}}|<1",
"2&344444444444445&6",
"7888888888888888889",
"0!!!!!!!!!!!!!!!!!a",
"b]]]]]]]]]]]]]]]]]c",
"d/////////////////e",
"f:::::::::::::::::g",
"f22222222222222222h",
"ijjjjjjjjjjjjjjjjjk",
"lmmmmmmmmmmmmmmmmmn"};
