/* XPM */
static char * rhalfufcs_xpm[] = {
"19 19 77 1",
" 	c #AAAAAA",
".	c #ABABAB",
"+	c #9F9F9F",
"@	c #777777",
"#	c #ACACAC",
"$	c #A1A1A1",
"%	c #787878",
"&	c #AEAEAE",
"*	c #A3A3A3",
"=	c #EFD9BC",
"-	c #7A7A7A",
";	c #AFAFAF",
">	c #A4A4A4",
",	c #F0DBC0",
"'	c #EED6B7",
")	c #E6C496",
"!	c #7B7B7B",
"~	c #B1B1B1",
"{	c #A6A6A6",
"]	c #F0DCC1",
"^	c #EED7B8",
"/	c #E6C497",
"(	c #7C7C7C",
"_	c #B2B2B2",
":	c #A8A8A8",
"<	c #F1DDC2",
"[	c #EFD8BA",
"}	c #E7C599",
"|	c #7E7E7E",
"1	c #B3B3B3",
"2	c #A9A9A9",
"3	c #F1DDC3",
"4	c #EFD9BB",
"5	c #B5B5B5",
"6	c #F1DEC4",
"7	c #E7C69A",
"8	c #808080",
"9	c #B7B7B7",
"0	c #ADADAD",
"a	c #F1DFC6",
"b	c #F0DABE",
"c	c #E7C79B",
"d	c #818181",
"e	c #B8B8B8",
"f	c #F2DFC7",
"g	c #F0DBBF",
"h	c #E7C79C",
"i	c #828282",
"j	c #B9B9B9",
"k	c #B0B0B0",
"l	c #F2E0C8",
"m	c #F0DCC0",
"n	c #E8C89E",
"o	c #848484",
"p	c #BBBBBB",
"q	c #F2E1C9",
"r	c #858585",
"s	c #BCBCBC",
"t	c #F2E1CA",
"u	c #E8C99F",
"v	c #868686",
"w	c #BEBEBE",
"x	c #F3E2CC",
"y	c #E8C9A0",
"z	c #878787",
"A	c #C0C0C0",
"B	c #EBCFA9",
"C	c #EACCA5",
"D	c #E3BC88",
"E	c #898989",
"F	c #8A8A8A",
"G	c #C2C2C2",
"H	c #BABABA",
"I	c #8B8B8B",
"J	c #939393",
"K	c #8D8D8D",
"L	c #696969",
"                   ",
".+++++++++++++++++@",
"#$$$$$$$$$$$$$$$$$%",
"&*********======**-",
";>>>>>>>>>,'''')>>!",
"~{{{{{{{{{]^^^^/{{(",
"_:::::::::<[[[[}::|",
"122222222234444}22|",
"5.........6====7..8",
"9000000000abbbbc00d",
"e&&&&&&&&&fggggh&&i",
"jkkkkkkkkklmmmmnkko",
"p_________q<<<<n__r",
"s111111111t3333u11v",
"w555555555x6666y55z",
"A999999999BCCCCD99E",
"AeeeeeeeeeeeeeeeeeF",
"GHHHHHHHHHHHHHHHHHI",
"JKKKKKKKKKKKKKKKKKL"};
