/* XPM */
static char * pshadefcs_xpm[] = {
"19 19 64 1",
" 	c #818181",
".	c #828282",
"+	c #717171",
"@	c #545454",
"#	c #848484",
"$	c #737373",
"%	c #C1A181",
"&	c #565656",
"*	c #868686",
"=	c #757575",
"-	c #C8AC8F",
";	c #BB9977",
">	c #B08860",
",	c #575757",
"'	c #878787",
")	c #767676",
"!	c #BB9876",
"~	c #B5906B",
"{	c #A67C52",
"]	c #585858",
"^	c #888888",
"/	c #787878",
"(	c #5A5A5A",
"_	c #8A8A8A",
":	c #7A7A7A",
"<	c #C5A88A",
"[	c #BD9C7B",
"}	c #AE855C",
"|	c #5B5B5B",
"1	c #8B8B8B",
"2	c #7B7B7B",
"3	c #C6A98B",
"4	c #BE9D7C",
"5	c #AE865D",
"6	c #5C5C5C",
"7	c #8D8D8D",
"8	c #7D7D7D",
"9	c #C7AA8D",
"0	c #BF9E7E",
"a	c #AF865E",
"b	c #5D5D5D",
"c	c #8F8F8F",
"d	c #7F7F7F",
"e	c #5F5F5F",
"f	c #808080",
"g	c #606060",
"h	c #919191",
"i	c #616161",
"j	c #939393",
"k	c #636363",
"l	c #949494",
"m	c #858585",
"n	c #969696",
"o	c #656565",
"p	c #979797",
"q	c #898989",
"r	c #666666",
"s	c #989898",
"t	c #676767",
"u	c #9A9A9A",
"v	c #8C8C8C",
"w	c #696969",
"x	c #6A6A6A",
"y	c #4F4F4F",
"                   ",
".+++++++++++++++++@",
"#$%%%%%%%%%%%%%%%$&",
"*=-;;;;;;;;;;;;;>=,",
"')!~~~~~~~~~~~~~{)]",
"^////////%////////(",
"_:::::::<[}:::::::|",
"1222222344452222226",
"788888900000a88888b",
"cd888!~~~~~~~{888de",
"cfffffffffffffffffg",
"h.................i",
"j#################k",
"lmmmmmmmmmmmmmmmmmk",
"n'''''''''''''''''o",
"pqqqqqqqqqqqqqqqqqr",
"s_________________t",
"uvvvvvvvvvvvvvvvvvw",
"=xxxxxxxxxxxxxxxxxy"};
