/* XPM */
static char * pstuckufcs_xpm[] = {
"19 19 46 1",
" 	c #AAAAAA",
".	c #ABABAB",
"+	c #9F9F9F",
"@	c #777777",
"#	c #ACACAC",
"$	c #A1A1A1",
"%	c #787878",
"&	c #AEAEAE",
"*	c #A3A3A3",
"=	c #7A7A7A",
"-	c #AFAFAF",
";	c #A4A4A4",
">	c #7B7B7B",
",	c #B1B1B1",
"'	c #A6A6A6",
")	c #7C7C7C",
"!	c #B2B2B2",
"~	c #A8A8A8",
"{	c #7E7E7E",
"]	c #B3B3B3",
"^	c #A9A9A9",
"/	c #B5B5B5",
"(	c #808080",
"_	c #B7B7B7",
":	c #ADADAD",
"<	c #818181",
"[	c #B8B8B8",
"}	c #828282",
"|	c #B9B9B9",
"1	c #B0B0B0",
"2	c #848484",
"3	c #BBBBBB",
"4	c #858585",
"5	c #BCBCBC",
"6	c #868686",
"7	c #BEBEBE",
"8	c #878787",
"9	c #C0C0C0",
"0	c #939393",
"a	c #8D8D8D",
"b	c #696969",
"c	c #898989",
"d	c #8A8A8A",
"e	c #C2C2C2",
"f	c #BABABA",
"g	c #8B8B8B",
"                   ",
".+++++++++++++++++@",
"#$$$$$$$$$$$$$$$$$%",
"&**             **=",
"-;;-;;;;;;;;;;;>;;>",
",'',''''''''''')'')",
"!~~!~~~~~~~~~~~{~~{",
"]^^]^^^^^^^^^^^{^^{",
"/../...........(..(",
"_::_:::::::::::<::<",
"[&&[&&&&&&&&&&&}&&}",
"|11|111111111112112",
"3!!3!!!!!!!!!!!4!!4",
"5]]5]]]]]]]]]]]6]]6",
"7//7///////////8//8",
"9__0aaaaaaaaaaab__c",
"9[[[[[[[[[[[[[[[[[d",
"efffffffffffffffffg",
"0aaaaaaaaaaaaaaaaab"};
