/* XPM */
static char * punshadeufcs_xpm[] = {
"19 19 62 1",
" 	c #AAAAAA",
".	c #ABABAB",
"+	c #9F9F9F",
"@	c #777777",
"#	c #ACACAC",
"$	c #A1A1A1",
"%	c #EFD9BC",
"&	c #787878",
"*	c #AEAEAE",
"=	c #A3A3A3",
"-	c #F0DBBF",
";	c #EED6B6",
">	c #E6C496",
",	c #7A7A7A",
"'	c #AFAFAF",
")	c #A4A4A4",
"!	c #EBCFA9",
"~	c #EACCA5",
"{	c #E3BC88",
"]	c #7B7B7B",
"^	c #B1B1B1",
"/	c #A6A6A6",
"(	c #7C7C7C",
"_	c #B2B2B2",
":	c #A8A8A8",
"<	c #F1DDC2",
"[	c #7E7E7E",
"}	c #B3B3B3",
"|	c #A9A9A9",
"1	c #F1DDC3",
"2	c #EFD9BB",
"3	c #E7C599",
"4	c #B5B5B5",
"5	c #F1DEC4",
"6	c #E7C69A",
"7	c #808080",
"8	c #B7B7B7",
"9	c #ADADAD",
"0	c #F1DFC6",
"a	c #F0DABE",
"b	c #E7C79B",
"c	c #818181",
"d	c #B8B8B8",
"e	c #828282",
"f	c #B9B9B9",
"g	c #B0B0B0",
"h	c #848484",
"i	c #BBBBBB",
"j	c #858585",
"k	c #BCBCBC",
"l	c #868686",
"m	c #BEBEBE",
"n	c #878787",
"o	c #C0C0C0",
"p	c #898989",
"q	c #8A8A8A",
"r	c #C2C2C2",
"s	c #BABABA",
"t	c #8B8B8B",
"u	c #939393",
"v	c #8D8D8D",
"w	c #696969",
"                   ",
".+++++++++++++++++@",
"#$%%%%%%%%%%%%%%%$&",
"*=-;;;;;;;;;;;;;>=,",
"')!~~~~~~~~~~~~~{)]",
"^/////////////////(",
"_::::<<<<<<<<<::::[",
"}|||||1222223|||||[",
"4......5%%%6......7",
"899999990ab9999999c",
"d********{********e",
"fgggggggggggggggggh",
"i_________________j",
"k}}}}}}}}}}}}}}}}}l",
"m44444444444444444n",
"o88888888888888888p",
"odddddddddddddddddq",
"rssssssssssssssssst",
"uvvvvvvvvvvvvvvvvvw"};
