/* XPM */
static char * pclosepr_xpm[] = {
"19 19 59 1",
" 	c #3F3F3F",
".	c #545454",
"+	c #616161",
"@	c #565656",
"#	c #717171",
"$	c #848484",
"%	c #575757",
"&	c #737373",
"*	c #868686",
"=	c #585858",
"-	c #757575",
";	c #878787",
">	c #5A5A5A",
",	c #767676",
"'	c #888888",
")	c #5B5B5B",
"!	c #787878",
"~	c #8A8A8A",
"{	c #5C5C5C",
"]	c #7A7A7A",
"^	c #8B8B8B",
"/	c #5D5D5D",
"(	c #7B7B7B",
"_	c #567863",
":	c #628972",
"<	c #659284",
"[	c #8D8D8D",
"}	c #5F5F5F",
"|	c #7D7D7D",
"1	c #659181",
"2	c #6DA9A9",
"3	c #73B8C0",
"4	c #8F8F8F",
"5	c #606060",
"6	c #7F7F7F",
"7	c #659282",
"8	c #6EABAC",
"9	c #808080",
"0	c #72B6BD",
"a	c #919191",
"b	c #636363",
"c	c #828282",
"d	c #77C3D3",
"e	c #939393",
"f	c #949494",
"g	c #656565",
"h	c #858585",
"i	c #969696",
"j	c #666666",
"k	c #979797",
"l	c #676767",
"m	c #898989",
"n	c #989898",
"o	c #696969",
"p	c #9A9A9A",
"q	c #6A6A6A",
"r	c #8C8C8C",
"s	c #9C9C9C",
"t	c #9D9D9D",
" .................+",
"@#################$",
"%&&&&&&&&&&&&&&&&&*",
"=-----------------;",
">,,,,,,,,,,,,,,,,,'",
")!!!!!!!!!!!!!!!!!~",
"{]]]]]]]]]]]]]]]]]^",
"/((((((_:::<(((((([",
"}||||||12223||||||4",
"5666666788836666664",
"+999999<8880999999a",
"bccccccdddddcccccce",
"b$$$$$$$$$$$$$$$$$f",
"ghhhhhhhhhhhhhhhhhi",
"j;;;;;;;;;;;;;;;;;k",
"lmmmmmmmmmmmmmmmmmn",
"o~~~~~~~~~~~~~~~~~p",
"qrrrrrrrrrrrrrrrrrs",
"ttttttttttttttttttt"};
