/* XPM */
static char * pcloseufcs_xpm[] = {
"19 19 58 1",
" 	c #AAAAAA",
".	c #ABABAB",
"+	c #9F9F9F",
"@	c #777777",
"#	c #ACACAC",
"$	c #A1A1A1",
"%	c #787878",
"&	c #AEAEAE",
"*	c #A3A3A3",
"=	c #7A7A7A",
"-	c #AFAFAF",
";	c #A4A4A4",
">	c #7B7B7B",
",	c #B1B1B1",
"'	c #A6A6A6",
")	c #7C7C7C",
"!	c #B2B2B2",
"~	c #A8A8A8",
"{	c #7E7E7E",
"]	c #B3B3B3",
"^	c #A9A9A9",
"/	c #89E8FD",
"(	c #B5B5B5",
"_	c #8AEDFF",
":	c #84D4CF",
"<	c #808080",
"[	c #B7B7B7",
"}	c #ADADAD",
"|	c #8AEEFF",
"1	c #89E9FF",
"2	c #84D5D0",
"3	c #818181",
"4	c #B8B8B8",
"5	c #8BEEFF",
"6	c #89EAFF",
"7	c #84D5D2",
"8	c #828282",
"9	c #B9B9B9",
"0	c #B0B0B0",
"a	c #87DDE3",
"b	c #86DADE",
"c	c #82C9B7",
"d	c #848484",
"e	c #BBBBBB",
"f	c #858585",
"g	c #BCBCBC",
"h	c #868686",
"i	c #BEBEBE",
"j	c #878787",
"k	c #C0C0C0",
"l	c #898989",
"m	c #8A8A8A",
"n	c #C2C2C2",
"o	c #BABABA",
"p	c #8B8B8B",
"q	c #939393",
"r	c #8D8D8D",
"s	c #696969",
"                   ",
".+++++++++++++++++@",
"#$$$$$$$$$$$$$$$$$%",
"&*****************=",
"-;;;;;;;;;;;;;;;;;>",
",''''''''''''''''')",
"!~~~~~~~~~~~~~~~~~{",
"]^^^^^^/////^^^^^^{",
"(......_///:......<",
"[}}}}}}|1112}}}}}}3",
"4&&&&&&56667&&&&&&8",
"9000000abbbc000000d",
"e!!!!!!!!!!!!!!!!!f",
"g]]]]]]]]]]]]]]]]]h",
"i(((((((((((((((((j",
"k[[[[[[[[[[[[[[[[[l",
"k44444444444444444m",
"nooooooooooooooooop",
"qrrrrrrrrrrrrrrrrrs"};
