/* XPM */
static char * lhalffcs_xpm[] = {
"19 19 81 1",
" 	c #818181",
".	c #828282",
"+	c #717171",
"@	c #545454",
"#	c #848484",
"$	c #737373",
"%	c #565656",
"&	c #868686",
"*	c #757575",
"=	c #6FACAD",
"-	c #575757",
";	c #878787",
">	c #767676",
",	c #70B1B5",
"'	c #6BA4A0",
")	c #638C78",
"!	c #585858",
"~	c #888888",
"{	c #787878",
"]	c #70B1B7",
"^	c #6CA5A3",
"/	c #638D7A",
"(	c #5A5A5A",
"_	c #8A8A8A",
":	c #7A7A7A",
"<	c #71B4B9",
"[	c #6CA7A5",
"}	c #648E7C",
"|	c #5B5B5B",
"1	c #8B8B8B",
"2	c #7B7B7B",
"3	c #71B5BB",
"4	c #6DA8A7",
"5	c #648F7D",
"6	c #5C5C5C",
"7	c #8D8D8D",
"8	c #7D7D7D",
"9	c #72B6BD",
"0	c #6DA9A9",
"a	c #648F7E",
"b	c #5D5D5D",
"c	c #8F8F8F",
"d	c #7F7F7F",
"e	c #73B8C0",
"f	c #6EABAC",
"g	c #659181",
"h	c #5F5F5F",
"i	c #808080",
"j	c #659282",
"k	c #606060",
"l	c #919191",
"m	c #73B9C3",
"n	c #6FADAF",
"o	c #659284",
"p	c #616161",
"q	c #939393",
"r	c #74BBC6",
"s	c #6FAEB1",
"t	c #669586",
"u	c #636363",
"v	c #949494",
"w	c #858585",
"x	c #74BBC7",
"y	c #70AFB3",
"z	c #969696",
"A	c #74BDCA",
"B	c #679689",
"C	c #656565",
"D	c #979797",
"E	c #898989",
"F	c #6BA29F",
"G	c #689A90",
"H	c #5F856E",
"I	c #666666",
"J	c #989898",
"K	c #676767",
"L	c #9A9A9A",
"M	c #8C8C8C",
"N	c #696969",
"O	c #6A6A6A",
"P	c #4F4F4F",
"                   ",
".+++++++++++++++++@",
"#$$$$$$$$$$$$$$$$$%",
"&**======*********-",
";>>,'''')>>>>>>>>>!",
"~{{]^^^^/{{{{{{{{{(",
"_::<[[[[}:::::::::|",
"1223444452222222226",
"78890000a888888888b",
"cddeffffgdddddddddh",
"ciieffffjiiiiiiiiik",
"l..mnnnno.........p",
"q##rsssst#########u",
"vwwxyyyytwwwwwwwwwu",
"z;;A,,,,B;;;;;;;;;C",
"DEEFGGGGHEEEEEEEEEI",
"J_________________K",
"LMMMMMMMMMMMMMMMMMN",
"*OOOOOOOOOOOOOOOOOP"};
