/* XPM */
static char * pshadepr_xpm[] = {
"19 19 66 1",
" 	c #3F3F3F",
".	c #545454",
"+	c #616161",
"@	c #565656",
"#	c #717171",
"$	c #848484",
"%	c #575757",
"&	c #737373",
"*	c #567863",
"=	c #628972",
"-	c #659284",
";	c #868686",
">	c #585858",
",	c #757575",
"'	c #638C78",
")	c #6BA4A0",
"!	c #70B1B5",
"~	c #878787",
"{	c #5A5A5A",
"]	c #767676",
"^	c #77C3D3",
"/	c #888888",
"(	c #5B5B5B",
"_	c #787878",
":	c #648E7C",
"<	c #8A8A8A",
"[	c #5C5C5C",
"}	c #7A7A7A",
"|	c #648F7D",
"1	c #6CA7A5",
"2	c #71B5BB",
"3	c #8B8B8B",
"4	c #5D5D5D",
"5	c #7B7B7B",
"6	c #648F7E",
"7	c #6DA8A7",
"8	c #72B6BD",
"9	c #8D8D8D",
"0	c #5F5F5F",
"a	c #7D7D7D",
"b	c #659181",
"c	c #6DA9A9",
"d	c #73B8C0",
"e	c #8F8F8F",
"f	c #606060",
"g	c #7F7F7F",
"h	c #808080",
"i	c #919191",
"j	c #636363",
"k	c #828282",
"l	c #939393",
"m	c #949494",
"n	c #656565",
"o	c #858585",
"p	c #969696",
"q	c #666666",
"r	c #979797",
"s	c #676767",
"t	c #898989",
"u	c #989898",
"v	c #696969",
"w	c #9A9A9A",
"x	c #6A6A6A",
"y	c #8C8C8C",
"z	c #9C9C9C",
"A	c #9D9D9D",
" .................+",
"@#################$",
"%&*=============-&;",
">,')))))))))))))!,~",
"{]^^^^^^^^^^^^^^^]/",
"(________:________<",
"[}}}}}}}|12}}}}}}}3",
"4555555677785555559",
"0aaaaabcccccdaaaaae",
"fgggg^^^^^^^^^gggge",
"+hhhhhhhhhhhhhhhhhi",
"jkkkkkkkkkkkkkkkkkl",
"j$$$$$$$$$$$$$$$$$m",
"nooooooooooooooooop",
"q~~~~~~~~~~~~~~~~~r",
"stttttttttttttttttu",
"v<<<<<<<<<<<<<<<<<w",
"xyyyyyyyyyyyyyyyyyz",
"AAAAAAAAAAAAAAAAAAA"};
