/* XPM */
static char * pstickfcs_xpm[] = {
"19 19 48 1",
" 	c #818181",
".	c #828282",
"+	c #717171",
"@	c #545454",
"#	c #848484",
"$	c #737373",
"%	c #565656",
"&	c #868686",
"*	c #757575",
"=	c #575757",
"-	c #878787",
";	c #767676",
">	c #585858",
",	c #888888",
"'	c #787878",
")	c #5A5A5A",
"!	c #8A8A8A",
"~	c #7A7A7A",
"{	c #5B5B5B",
"]	c #8B8B8B",
"^	c #7B7B7B",
"/	c #5C5C5C",
"(	c #8D8D8D",
"_	c #7D7D7D",
":	c #5D5D5D",
"<	c #8F8F8F",
"[	c #7F7F7F",
"}	c #5F5F5F",
"|	c #808080",
"1	c #606060",
"2	c #919191",
"3	c #6A6A6A",
"4	c #4F4F4F",
"5	c #616161",
"6	c #939393",
"7	c #636363",
"8	c #949494",
"9	c #858585",
"0	c #969696",
"a	c #656565",
"b	c #979797",
"c	c #898989",
"d	c #666666",
"e	c #989898",
"f	c #676767",
"g	c #9A9A9A",
"h	c #8C8C8C",
"i	c #696969",
"                   ",
".+++++++++++++++++@",
"#$$$$$$$$$$$$$$$$$%",
"&*****************=",
"-;;;;;;;;;;;;;;;;;>",
",''''''''''''''''')",
"!~~~~~~~~~~~~~~~~~{",
"]^^^^^^     ^^^^^^/",
"(______(___:______:",
"<[[[[[[<[[[}[[[[[[}",
"<||||||<|||1||||||1",
"2......*3334......5",
"6#################7",
"8999999999999999997",
"0-----------------a",
"bcccccccccccccccccd",
"e!!!!!!!!!!!!!!!!!f",
"ghhhhhhhhhhhhhhhhhi",
"*333333333333333334"};
