/* XPM */
static char * pstuckpr_xpm[] = {
"19 19 49 1",
" 	c #3F3F3F",
".	c #545454",
"+	c #616161",
"@	c #565656",
"#	c #717171",
"$	c #848484",
"%	c #575757",
"&	c #737373",
"*	c #868686",
"=	c #585858",
"-	c #757575",
";	c #878787",
">	c #5A5A5A",
",	c #767676",
"'	c #888888",
")	c #5B5B5B",
"!	c #787878",
"~	c #8A8A8A",
"{	c #5C5C5C",
"]	c #7A7A7A",
"^	c #8B8B8B",
"/	c #5D5D5D",
"(	c #7B7B7B",
"_	c #8D8D8D",
":	c #5F5F5F",
"<	c #7D7D7D",
"[	c #8F8F8F",
"}	c #606060",
"|	c #7F7F7F",
"1	c #808080",
"2	c #919191",
"3	c #636363",
"4	c #828282",
"5	c #939393",
"6	c #949494",
"7	c #656565",
"8	c #858585",
"9	c #969696",
"0	c #666666",
"a	c #979797",
"b	c #676767",
"c	c #898989",
"d	c #9D9D9D",
"e	c #989898",
"f	c #696969",
"g	c #9A9A9A",
"h	c #6A6A6A",
"i	c #8C8C8C",
"j	c #9C9C9C",
" .................+",
"@#################$",
"%&&&&&&&&&&&&&&&&&*",
"=-- ...........+--;",
">,,>,,,,,,,,,,,',,'",
")!!)!!!!!!!!!!!~!!~",
"{]]{]]]]]]]]]]]^]]^",
"/((/(((((((((((_((_",
":<<:<<<<<<<<<<<[<<[",
"}||}|||||||||||[||[",
"+11+111111111112112",
"3443444444444445445",
"3$$3$$$$$$$$$$$6$$6",
"7887888888888889889",
"0;;0;;;;;;;;;;;a;;a",
"bccdddddddddddddcce",
"f~~~~~~~~~~~~~~~~~g",
"hiiiiiiiiiiiiiiiiij",
"ddddddddddddddddddd"};
