/* XPM */
static char * pclosefcs_xpm[] = {
"19 19 59 1",
" 	c #818181",
".	c #828282",
"+	c #717171",
"@	c #545454",
"#	c #848484",
"$	c #737373",
"%	c #565656",
"&	c #868686",
"*	c #757575",
"=	c #575757",
"-	c #878787",
";	c #767676",
">	c #585858",
",	c #888888",
"'	c #787878",
")	c #5A5A5A",
"!	c #8A8A8A",
"~	c #7A7A7A",
"{	c #5B5B5B",
"]	c #8B8B8B",
"^	c #7B7B7B",
"/	c #BD8979",
"(	c #5C5C5C",
"_	c #8D8D8D",
":	c #7D7D7D",
"<	c #C39184",
"[	c #BB8676",
"}	c #AB7258",
"|	c #5D5D5D",
"1	c #8F8F8F",
"2	c #7F7F7F",
"3	c #C49286",
"4	c #BC8878",
"5	c #AC745A",
"6	c #5F5F5F",
"7	c #808080",
"8	c #AC745B",
"9	c #606060",
"0	c #919191",
"a	c #B7816F",
"b	c #B17A64",
"c	c #A3694D",
"d	c #616161",
"e	c #939393",
"f	c #636363",
"g	c #949494",
"h	c #858585",
"i	c #969696",
"j	c #656565",
"k	c #979797",
"l	c #898989",
"m	c #666666",
"n	c #989898",
"o	c #676767",
"p	c #9A9A9A",
"q	c #8C8C8C",
"r	c #696969",
"s	c #6A6A6A",
"t	c #4F4F4F",
"                   ",
".+++++++++++++++++@",
"#$$$$$$$$$$$$$$$$$%",
"&*****************=",
"-;;;;;;;;;;;;;;;;;>",
",''''''''''''''''')",
"!~~~~~~~~~~~~~~~~~{",
"]^^^^^^/////^^^^^^(",
"_::::::<[[[}::::::|",
"1222222344452222226",
"1777777344487777779",
"0......abbbc......d",
"e#################f",
"ghhhhhhhhhhhhhhhhhf",
"i-----------------j",
"klllllllllllllllllm",
"n!!!!!!!!!!!!!!!!!o",
"pqqqqqqqqqqqqqqqqqr",
"*ssssssssssssssssst"};
