/* XPM */
static char * pmaxufcs_xpm[] = {
"19 19 77 1",
" 	c #AAAAAA",
".	c #ABABAB",
"+	c #9F9F9F",
"@	c #777777",
"#	c #ACACAC",
"$	c #A1A1A1",
"%	c #787878",
"&	c #AEAEAE",
"*	c #A3A3A3",
"=	c #EAB8B0",
"-	c #7A7A7A",
";	c #AFAFAF",
">	c #A4A4A4",
",	c #EBBAB4",
"'	c #E9B6AC",
")	c #E1A78D",
"!	c #7B7B7B",
"~	c #B1B1B1",
"{	c #A6A6A6",
"]	c #EBBBB5",
"^	c #E9B7AD",
"/	c #E1A78E",
"(	c #7C7C7C",
"_	c #B2B2B2",
":	c #A8A8A8",
"<	c #ECBCB6",
"[	c #EAB8AE",
"}	c #E2A78F",
"|	c #7E7E7E",
"1	c #B3B3B3",
"2	c #A9A9A9",
"3	c #ECBCB7",
"4	c #EAB8AF",
"5	c #B5B5B5",
"6	c #ECBDB8",
"7	c #E2A890",
"8	c #808080",
"9	c #B7B7B7",
"0	c #ADADAD",
"a	c #ECBEBA",
"b	c #EBB9B2",
"c	c #E2A991",
"d	c #818181",
"e	c #B8B8B8",
"f	c #EDBEBB",
"g	c #EBBAB3",
"h	c #E2A992",
"i	c #828282",
"j	c #B9B9B9",
"k	c #B0B0B0",
"l	c #EDBEBC",
"m	c #EBBBB4",
"n	c #E3AA94",
"o	c #848484",
"p	c #BBBBBB",
"q	c #EDBFBC",
"r	c #858585",
"s	c #BCBCBC",
"t	c #EDBFBD",
"u	c #E3AB95",
"v	c #868686",
"w	c #BEBEBE",
"x	c #EEC0BF",
"y	c #E3AB96",
"z	c #878787",
"A	c #C0C0C0",
"B	c #E6B09E",
"C	c #E5AD9B",
"D	c #DEA080",
"E	c #898989",
"F	c #8A8A8A",
"G	c #C2C2C2",
"H	c #BABABA",
"I	c #8B8B8B",
"J	c #939393",
"K	c #8D8D8D",
"L	c #696969",
"                   ",
".+++++++++++++++++@",
"#$$$$$$$$$$$$$$$$$%",
"&**=============**-",
";>>,''''''''''')>>!",
"~{{]^^^^^^^^^^^/{{(",
"_::<[[[[[[[[[[[}::|",
"122344444444444}22|",
"5..6===========7..8",
"900abbbbbbbbbbbc00d",
"e&&fgggggggggggh&&i",
"jkklmmmmmmmmmmmnkko",
"p__q<<<<<<<<<<<n__r",
"s11t33333333333u11v",
"w55x66666666666y55z",
"A99BCCCCCCCCCCCD99E",
"AeeeeeeeeeeeeeeeeeF",
"GHHHHHHHHHHHHHHHHHI",
"JKKKKKKKKKKKKKKKKKL"};
