/* XPM */
static char * pminfcs_xpm[] = {
"19 19 55 1",
" 	c #818181",
".	c #828282",
"+	c #717171",
"@	c #545454",
"#	c #848484",
"$	c #737373",
"%	c #565656",
"&	c #868686",
"*	c #757575",
"=	c #575757",
"-	c #878787",
";	c #767676",
">	c #585858",
",	c #888888",
"'	c #787878",
")	c #5A5A5A",
"!	c #8A8A8A",
"~	c #7A7A7A",
"{	c #5B5B5B",
"]	c #8B8B8B",
"^	c #7B7B7B",
"/	c #5C5C5C",
"(	c #8D8D8D",
"_	c #7D7D7D",
":	c #5D5D5D",
"<	c #8F8F8F",
"[	c #7F7F7F",
"}	c #5F5F5F",
"|	c #808080",
"1	c #606060",
"2	c #919191",
"3	c #616161",
"4	c #939393",
"5	c #636363",
"6	c #949494",
"7	c #858585",
"8	c #BD8979",
"9	c #969696",
"0	c #C49286",
"a	c #C08D7F",
"b	c #AC745A",
"c	c #656565",
"d	c #979797",
"e	c #898989",
"f	c #B7816F",
"g	c #B17A64",
"h	c #A3694D",
"i	c #666666",
"j	c #989898",
"k	c #676767",
"l	c #9A9A9A",
"m	c #8C8C8C",
"n	c #696969",
"o	c #6A6A6A",
"p	c #4F4F4F",
"                   ",
".+++++++++++++++++@",
"#$$$$$$$$$$$$$$$$$%",
"&*****************=",
"-;;;;;;;;;;;;;;;;;>",
",''''''''''''''''')",
"!~~~~~~~~~~~~~~~~~{",
"]^^^^^^^^^^^^^^^^^/",
"(_________________:",
"<[[[[[[[[[[[[[[[[[}",
"<|||||||||||||||||1",
"2.................3",
"4#################5",
"6788888888888888875",
"9-0aaaaaaaaaaaaab-c",
"defggggggggggggghei",
"j!!!!!!!!!!!!!!!!!k",
"lmmmmmmmmmmmmmmmmmn",
"*ooooooooooooooooop"};
