/* XPM */
static char * rhalfpr_xpm[] = {
"19 19 82 1",
" 	c #3F3F3F",
".	c #545454",
"+	c #616161",
"@	c #565656",
"#	c #717171",
"$	c #848484",
"%	c #575757",
"&	c #737373",
"*	c #868686",
"=	c #585858",
"-	c #757575",
";	c #935F45",
">	c #A76D50",
",	c #AD745C",
"'	c #878787",
")	c #5A5A5A",
"!	c #767676",
"~	c #A97055",
"{	c #B78270",
"]	c #C08D80",
"^	c #888888",
"/	c #5B5B5B",
"(	c #787878",
"_	c #AA7156",
":	c #B88371",
"<	c #C18F81",
"[	c #8A8A8A",
"}	c #5C5C5C",
"|	c #7A7A7A",
"1	c #AA7257",
"2	c #B98573",
"3	c #C29082",
"4	c #8B8B8B",
"5	c #5D5D5D",
"6	c #7B7B7B",
"7	c #AB7258",
"8	c #BA8574",
"9	c #C39184",
"0	c #8D8D8D",
"a	c #5F5F5F",
"b	c #7D7D7D",
"c	c #AC745A",
"d	c #BB8676",
"e	c #C49286",
"f	c #8F8F8F",
"g	c #606060",
"h	c #7F7F7F",
"i	c #AC745B",
"j	c #BC8878",
"k	c #808080",
"l	c #C59388",
"m	c #919191",
"n	c #636363",
"o	c #828282",
"p	c #AE765E",
"q	c #BD8A7A",
"r	c #C6958A",
"s	c #939393",
"t	c #BE8B7C",
"u	c #C6958B",
"v	c #949494",
"w	c #656565",
"x	c #858585",
"y	c #AF7760",
"z	c #BF8B7D",
"A	c #C7968D",
"B	c #969696",
"C	c #666666",
"D	c #AF7861",
"E	c #C08D7F",
"F	c #C8978E",
"G	c #979797",
"H	c #676767",
"I	c #898989",
"J	c #CB9B93",
"K	c #989898",
"L	c #696969",
"M	c #9A9A9A",
"N	c #6A6A6A",
"O	c #8C8C8C",
"P	c #9C9C9C",
"Q	c #9D9D9D",
" .................+",
"@#################$",
"%&&&&&&&&&&&&&&&&&*",
"=---------;>>>>,--'",
")!!!!!!!!!~{{{{]!!^",
"/(((((((((_::::<(([",
"}|||||||||122223||4",
"5666666666788889660",
"abbbbbbbbbcddddebbf",
"ghhhhhhhhhijjjjehhf",
"+kkkkkkkkk,jjjjlkkm",
"nooooooooopqqqqroos",
"n$$$$$$$$$pttttu$$v",
"wxxxxxxxxxyzzzzAxxB",
"C'''''''''DEEEEF''G",
"HIIIIIIIIIJJJJJJIIK",
"L[[[[[[[[[[[[[[[[[M",
"NOOOOOOOOOOOOOOOOOP",
"QQQQQQQQQQQQQQQQQQQ"};
