/* XPM */
static char * pstickufcs_xpm[] = {
"19 19 46 1",
" 	c #AAAAAA",
".	c #ABABAB",
"+	c #9F9F9F",
"@	c #777777",
"#	c #ACACAC",
"$	c #A1A1A1",
"%	c #787878",
"&	c #AEAEAE",
"*	c #A3A3A3",
"=	c #7A7A7A",
"-	c #AFAFAF",
";	c #A4A4A4",
">	c #7B7B7B",
",	c #B1B1B1",
"'	c #A6A6A6",
")	c #7C7C7C",
"!	c #B2B2B2",
"~	c #A8A8A8",
"{	c #7E7E7E",
"]	c #B3B3B3",
"^	c #A9A9A9",
"/	c #B5B5B5",
"(	c #808080",
"_	c #B7B7B7",
":	c #ADADAD",
"<	c #818181",
"[	c #B8B8B8",
"}	c #828282",
"|	c #B9B9B9",
"1	c #B0B0B0",
"2	c #939393",
"3	c #8D8D8D",
"4	c #696969",
"5	c #848484",
"6	c #BBBBBB",
"7	c #858585",
"8	c #BCBCBC",
"9	c #868686",
"0	c #BEBEBE",
"a	c #878787",
"b	c #C0C0C0",
"c	c #898989",
"d	c #8A8A8A",
"e	c #C2C2C2",
"f	c #BABABA",
"g	c #8B8B8B",
"                   ",
".+++++++++++++++++@",
"#$$$$$$$$$$$$$$$$$%",
"&*****************=",
"-;;;;;;;;;;;;;;;;;>",
",''''''''''''''''')",
"!~~~~~~~~~~~~~~~~~{",
"]^^^^^^     ^^^^^^{",
"/....../...(......(",
"_::::::_:::<::::::<",
"[&&&&&&[&&&}&&&&&&}",
"|111111233341111115",
"6!!!!!!!!!!!!!!!!!7",
"8]]]]]]]]]]]]]]]]]9",
"0/////////////////a",
"b_________________c",
"b[[[[[[[[[[[[[[[[[d",
"efffffffffffffffffg",
"2333333333333333334"};
