/* XPM */
static char * punshadefcs_xpm[] = {
"19 19 62 1",
" 	c #818181",
".	c #828282",
"+	c #717171",
"@	c #545454",
"#	c #848484",
"$	c #737373",
"%	c #BD8979",
"&	c #565656",
"*	c #868686",
"=	c #757575",
"-	c #C49286",
";	c #B7816F",
">	c #AC745A",
",	c #575757",
"'	c #878787",
")	c #767676",
"!	c #B17A64",
"~	c #A3694D",
"{	c #585858",
"]	c #888888",
"^	c #787878",
"/	c #5A5A5A",
"(	c #8A8A8A",
"_	c #7A7A7A",
":	c #5B5B5B",
"<	c #8B8B8B",
"[	c #7B7B7B",
"}	c #C29082",
"|	c #BA8574",
"1	c #AB7258",
"2	c #5C5C5C",
"3	c #8D8D8D",
"4	c #7D7D7D",
"5	c #C39184",
"6	c #BB8676",
"7	c #AA7257",
"8	c #5D5D5D",
"9	c #8F8F8F",
"0	c #7F7F7F",
"a	c #BC8878",
"b	c #AA7156",
"c	c #5F5F5F",
"d	c #808080",
"e	c #606060",
"f	c #919191",
"g	c #616161",
"h	c #939393",
"i	c #636363",
"j	c #949494",
"k	c #858585",
"l	c #969696",
"m	c #656565",
"n	c #979797",
"o	c #898989",
"p	c #666666",
"q	c #989898",
"r	c #676767",
"s	c #9A9A9A",
"t	c #8C8C8C",
"u	c #696969",
"v	c #6A6A6A",
"w	c #4F4F4F",
"                   ",
".+++++++++++++++++@",
"#$%%%%%%%%%%%%%%%$&",
"*=-;;;;;;;;;;;;;>=,",
"');!!!!!!!!!!!!!~){",
"]^^^^^^^^^^^^^^^^^/",
"(____%%%%%%%%%____:",
"<[[[[[}|||||1[[[[[2",
"3444444566674444448",
"90000000-ab0000000c",
"9dddddddd~dddddddde",
"f.................g",
"h#################i",
"jkkkkkkkkkkkkkkkkki",
"l'''''''''''''''''m",
"nooooooooooooooooop",
"q(((((((((((((((((r",
"stttttttttttttttttu",
"=vvvvvvvvvvvvvvvvvw"};
